# xmcd CD database file
#
# Track frame offsets:
#	150
#	13808
#	24416
#	36351
#	53944
#	63240
#	79269
#	98938
#	113759
#	119618
#	137397
#	147862
#	170853
#	190822
#	200152
#	216620
#
# Disc length: 3037 seconds
#
# Revision: 0
# Processed by: cddbd v1.4PL0 Copyright (c) Steve Scherf et al.
# Submitted via: CDex 1.40Release
#
DISCID=f40bdb10
DTITLE=Charles Heykoop - Life After Breakfast
DYEAR=2000
DGENRE=Blues
TTITLE0=The Girl From Ipanema
TTITLE1=Paso Doblillio
TTITLE2=Heman Dubh
TTITLE3=Latin Attack
TTITLE4=Sweet Sue
TTITLE5=Irish Airs
TTITLE6=Prelude No 1
TTITLE7=Cavatina
TTITLE8=La Grima
TTITLE9=Dance No 5
TTITLE10=Romanza
TTITLE11=Danza in Em
TTITLE12=The Pink Panther
TTITLE13=Sweet Georgia Brown
TTITLE14=Pineapple Rag
TTITLE15=Solace
EXTD=YEAR: 2000 ID3G: 0
EXTT0=
EXTT1=
EXTT2=
EXTT3=
EXTT4=
EXTT5=
EXTT6=
EXTT7=
EXTT8=
EXTT9=
EXTT10=
EXTT11=
EXTT12=
EXTT13=
EXTT14=
EXTT15=
PLAYORDER=
